<svg width="68" height="32" viewBox="0 0 68 32" fill="none" xmlns="http://www.w3.org/2000/svg">
<path d="M12.4249 5.6099C11.6279 6.55566 10.3528 7.30162 9.07763 7.19505C8.91823 5.91627 9.54252 4.55756 10.2731 3.71836C11.07 2.74596 12.4647 2.05328 13.5938 2C13.7266 3.33206 13.2086 4.63749 12.4249 5.6099ZM13.5805 7.44814C11.7342 7.34158 10.1535 8.50048 9.27687 8.50048C8.38692 8.50048 7.04536 7.50143 5.58426 7.52807C3.68482 7.55471 1.91821 8.63368 0.948569 10.352C-1.04385 13.7888 0.430541 18.8773 2.35654 21.6746C3.29962 23.0599 4.42865 24.5785 5.91632 24.5252C7.3243 24.4719 7.88217 23.6061 9.58237 23.6061C11.2958 23.6061 11.7873 24.5252 13.275 24.4986C14.8158 24.4719 15.7854 23.1132 16.7285 21.7279C17.8044 20.156 18.2427 18.6242 18.2693 18.5442C18.2427 18.5176 15.294 17.3853 15.2674 13.9753C15.2408 11.1246 17.5919 9.76594 17.6981 9.68601C16.3699 7.71456 14.2978 7.50143 13.5805 7.44814ZM24.2465 3.58516V24.352H27.461V17.2521H31.9107C35.9752 17.2521 38.831 14.4548 38.831 10.4053C38.831 6.35585 36.0284 3.58516 32.017 3.58516H24.2465ZM27.461 6.30257H31.1669C33.9563 6.30257 35.5502 7.79448 35.5502 10.4186C35.5502 13.0428 33.9563 14.548 31.1536 14.548H27.461V6.30257ZM44.702 24.5119C46.721 24.5119 48.5939 23.4862 49.444 21.8611H49.5104V24.352H52.4857V14.0152C52.4857 11.0181 50.0948 9.08658 46.4155 9.08658C43.0018 9.08658 40.4781 11.0447 40.3851 13.7355H43.2808C43.5199 12.4567 44.702 11.6175 46.3225 11.6175C48.2884 11.6175 49.3908 12.5366 49.3908 14.2284V15.3739L45.3794 15.6137C41.647 15.8402 39.628 17.372 39.628 20.0362C39.628 22.7269 41.7134 24.5119 44.702 24.5119ZM45.5654 22.0476C43.8519 22.0476 42.7627 21.2217 42.7627 19.9562C42.7627 18.6508 43.8121 17.8915 45.8178 17.7716L49.3908 17.5452V18.7174C49.3908 20.6622 47.7438 22.0476 45.5654 22.0476ZM56.4573 30C59.592 30 61.0664 28.8011 62.3548 25.1646L68 9.28639H64.7324L60.9468 21.5547H60.8804L57.0948 9.28639H53.7343L59.1802 24.4053L58.888 25.3245C58.3966 26.883 57.5996 27.4824 56.1783 27.4824C55.926 27.4824 55.4345 27.4558 55.2353 27.4291V29.9201C55.4212 29.9734 56.2182 30 56.4573 30Z" fill="white"/>
</svg>
