<svg width="36" height="36" viewBox="0 0 36 36" fill="none" xmlns="http://www.w3.org/2000/svg">
<path fill-rule="evenodd" clip-rule="evenodd" d="M8.00023 12.998H11.7202L13.0303 7.75746C13.1642 7.22166 13.7072 6.8959 14.243 7.02985C14.7788 7.1638 15.1045 7.70673 14.9706 8.24253L13.7817 12.998H22.2192L21.0303 8.24253C20.8963 7.70673 21.2221 7.1638 21.7579 7.02985C22.2937 6.8959 22.8366 7.22166 22.9706 7.75746L24.2807 12.998H28.0002C28.615 12.998 29.0842 13.5475 28.9879 14.1547L26.7659 28.1567C26.6888 28.6424 26.27 29 25.7782 29H10.2222C9.73045 29 9.31166 28.6424 9.23459 28.1567L7.01259 14.1547C6.91623 13.5475 7.38543 12.998 8.00023 12.998ZM26.829 14.998H9.17143L11.076 27H24.9244L26.829 14.998ZM13.4994 20H22.5014C23.0537 20 23.5014 19.5523 23.5014 19C23.5014 18.4477 23.0537 18 22.5014 18H13.4994C12.9471 18 12.4994 18.4477 12.4994 19C12.4994 19.5523 12.9471 20 13.4994 20ZM13.4994 24H22.5014C23.0537 24 23.5014 23.5523 23.5014 23C23.5014 22.4477 23.0537 22 22.5014 22H13.4994C12.9471 22 12.4994 22.4477 12.4994 23C12.4994 23.5523 12.9471 24 13.4994 24Z" fill="white"/>
</svg>
