<svg width="68" height="32" viewBox="0 0 68 32" fill="none" xmlns="http://www.w3.org/2000/svg">
<path fill-rule="evenodd" clip-rule="evenodd" d="M35.0538 11.4826C36.6498 11.4826 37.9697 10.9379 38.18 9.45583C38.2561 8.97449 38.2509 8.48382 38.1648 8.00418C37.9519 6.938 36.7497 6.30006 35.7197 5.75342C34.9605 5.35056 34.2948 4.9973 34.1873 4.55875C34.1571 4.40654 34.1571 4.24987 34.1873 4.09766C34.2203 3.91301 34.3226 3.74795 34.4734 3.63632C34.6241 3.52468 34.8118 3.47493 34.998 3.49725C35.1066 3.48868 35.2157 3.50354 35.318 3.54082C35.4203 3.5781 35.5134 3.63693 35.591 3.71332C35.6686 3.78971 35.7289 3.88189 35.7678 3.9836C35.8066 4.08532 35.8232 4.1942 35.8163 4.30287V4.85009H38.0204V4.2294C38.0204 2.30148 36.2952 2 35.0436 2C33.4679 2 32.1834 2.51935 31.9478 3.96846C31.8738 4.36348 31.8807 4.76941 31.9681 5.1617C32.1869 6.19511 33.3113 6.80894 34.3188 7.35899C35.0723 7.77039 35.7605 8.14611 35.9557 8.635C36.0222 8.84796 36.0275 9.07535 35.9709 9.29116C35.9025 9.58757 35.7023 9.88651 35.1095 9.88651C34.5167 9.88651 34.2178 9.5673 34.2178 9.08595V8.22712H31.8439V8.90861C31.8363 10.8872 33.3843 11.4826 35.0538 11.4826ZM5.98035 11.5793C7.59666 11.5793 8.92417 11.0296 9.13951 9.53231C9.22086 9.04845 9.22086 8.55439 9.13951 8.07053C8.92218 6.98972 7.70636 6.34642 6.66501 5.79544C5.89764 5.38942 5.22501 5.03353 5.11645 4.58963C5.08237 4.43526 5.08237 4.27531 5.11645 4.12094C5.14935 3.93824 5.25019 3.77475 5.3987 3.66337C5.54722 3.55198 5.7324 3.50094 5.91701 3.52053C6.02702 3.50993 6.13802 3.52345 6.24227 3.56016C6.34652 3.59686 6.44151 3.65586 6.52062 3.73304C6.59973 3.81022 6.66106 3.90372 6.70032 4.00703C6.73959 4.11034 6.75585 4.22098 6.74797 4.33122V4.8835H8.97737V4.25521C8.97737 2.30956 7.22425 2.00048 5.96008 2.00048C4.37163 2.00048 3.07452 2.52743 2.83638 3.98667C2.76272 4.38588 2.76875 4.79571 2.85412 5.19258C3.07306 6.23946 4.20903 6.85978 5.22752 7.41596C5.98854 7.83153 6.68397 8.21129 6.88224 8.70642C6.95149 8.92066 6.95678 9.15044 6.89744 9.36764C6.82651 9.66658 6.62383 9.97059 6.02595 9.97059C5.46606 9.97059 5.13165 9.64631 5.13165 9.15736V8.296H2.72998V8.98003C2.72998 10.9789 4.30069 11.5793 5.98035 11.5793ZM27.413 11.2167L27.3522 2.93754L25.8119 11.2167H23.5445L22.0067 2.93754L21.9484 11.2167H19.7114L19.9065 2.27379H23.5546L24.682 9.26347L25.8093 2.27379H29.4524L29.6525 11.2167H27.413ZM65.2799 8.559V6.1624H62.1157V7.4671H63.0252V8.76168C63.0294 8.87532 63.0218 8.9891 63.0024 9.10115C62.9644 9.34183 62.7363 9.75224 62.0853 9.75224C61.4342 9.75224 61.2214 9.34689 61.1834 9.09355C61.1655 8.98129 61.1571 8.86774 61.158 8.75408V4.67528C61.1552 4.53317 61.1688 4.3912 61.1986 4.2522C61.2406 4.05343 61.3547 3.87724 61.5189 3.75752C61.683 3.63779 61.8857 3.58299 62.0878 3.60365C62.7718 3.60365 62.9441 4.05713 62.9821 4.2522C62.9994 4.36626 63.0087 4.48139 63.01 4.59675V5.10343H65.2622V4.79942C65.2674 4.60248 65.2614 4.40541 65.2444 4.20914C65.0747 2.52948 63.694 2 62.1081 2C60.5221 2 59.1668 2.53455 58.9717 4.20914C58.954 4.36114 58.9261 4.63475 58.9261 4.79942V8.559C58.9264 8.75629 58.9383 8.95338 58.9616 9.14929C59.1085 10.7808 60.5221 11.3584 62.1055 11.3584C63.6889 11.3584 65.1 10.7808 65.2495 9.14929C65.2707 8.86162 65.2744 8.74074 65.2789 8.59261L65.2799 8.559ZM46.5681 9.27361C46.411 10.9457 45.0937 11.4878 43.4469 11.4878C41.8053 11.4878 40.4778 10.9457 40.3308 9.27361C40.3106 9.19 40.3106 8.84799 40.3106 8.68332V2.27379H42.5729V8.88853C42.5671 9.00219 42.5747 9.11614 42.5957 9.228C42.6321 9.42235 42.7392 9.59628 42.8965 9.71611C43.0538 9.83593 43.2499 9.89311 43.4469 9.87656C43.6452 9.89343 43.8427 9.83659 44.0016 9.71692C44.1605 9.59726 44.2697 9.42317 44.3083 9.228C44.3262 9.11579 44.3321 9.00199 44.326 8.88853V2.27379H46.5884V8.68332C46.5945 8.88031 46.5877 9.0775 46.5681 9.27361ZM14.3102 2.93754L15.5288 11.2167H17.9279L16.2787 2.27379H12.3038L10.6469 11.2167H13.0613L14.3102 2.93754ZM53.3982 11.123L51.1359 3.6925L51.2625 11.123H49.0686V2.27379H52.3874L54.4926 9.47374L54.371 2.27379H56.5802V11.123H53.3982Z" fill="white"/>
<path d="M16.2116 29.9709V16.2516H18.5573V17.2596C18.8842 16.7556 19.5075 16.4196 20.0124 16.2516C20.5172 16.0836 21.022 16.0276 21.5565 16.0276C22.8629 16.0276 24.2292 16.4476 25.3576 17.5396C26.397 18.5475 26.9315 19.8074 26.9315 21.2634C26.9315 21.9353 26.783 22.6073 26.516 23.2233C26.2488 23.8675 25.8627 24.4275 25.3873 24.9032C24.8828 25.4074 24.2889 25.7994 23.6649 26.0511C23.0116 26.3031 22.4177 26.4431 21.6456 26.4431C21.0814 26.4431 20.5172 26.3594 20.0124 26.1911C19.5075 26.0231 18.7948 25.6597 18.5276 25.2397V29.9995H16.2113V29.9709H16.2116ZM21.4678 17.9598C20.6066 17.9598 19.8642 18.2118 19.2703 18.7998C18.6467 19.4157 18.4091 20.2837 18.4091 21.1796C18.4091 22.1033 18.647 23.0275 19.2409 23.6432C19.8645 24.2595 20.6069 24.4832 21.4977 24.4832C22.3886 24.4832 23.131 24.1475 23.6655 23.6152C24.2895 22.9995 24.5864 22.1873 24.5864 21.2914C24.5864 20.3114 24.2895 19.4715 23.6655 18.8555C23.1307 18.2955 22.3586 17.9598 21.4678 17.9598ZM40.4434 16.2516H42.9081L46.1153 23.3075L49.1145 16.2516H51.5793L45.4323 29.9709H42.9972L44.9571 25.6311L40.4434 16.2516ZM36.7017 26.2474V25.2112C36.4344 25.6311 35.7217 26.0231 35.2169 26.1631C34.6824 26.3311 34.1476 26.4151 33.5836 26.4151C32.8112 26.4151 32.2173 26.2751 31.5643 26.0231C30.9404 25.7711 30.3465 25.3794 29.8417 24.8752C29.3665 24.3995 28.9808 23.8395 28.7132 23.1953C28.4463 22.551 28.2978 21.9073 28.2978 21.2354C28.2978 19.7794 28.8323 18.5195 29.8717 17.5116C31.0001 16.4196 32.3958 15.9996 33.6727 15.9996C34.2073 15.9996 34.7121 16.0836 35.2169 16.2236C35.7217 16.3916 36.3454 16.7276 36.6717 17.2316V16.2236H39.0177V26.2194H36.7014V26.2474H36.7017ZM31.5643 18.8275C30.9404 19.4435 30.6435 20.3114 30.6435 21.2634C30.6435 22.1596 30.9404 22.971 31.5643 23.5872C32.1282 24.1192 32.8412 24.4552 33.7321 24.4552C34.623 24.4552 35.3654 24.2309 35.989 23.6152C36.6129 22.9995 36.8205 22.1033 36.8205 21.1514C36.8205 20.2834 36.5829 19.3875 35.9596 18.7715C35.3357 18.1835 34.5933 17.9315 33.7621 17.9315C32.8412 17.9598 32.0988 18.2955 31.5643 18.8275Z" fill="white"/>
</svg>
